<svg id="visual" viewBox="0 0 960 540" width="960" height="540" xmlns="http://www.w3.org/2000/svg" xmlns:xlink="http://www.w3.org/1999/xlink" version="1.1"><g stroke-width="1" stroke-linejoin="bevel"><path d="M506 250L467 243L509 285Z" fill="#100e0e" stroke="#100e0e"></path><path d="M477 226L458 238L467 243Z" fill="#040101" stroke="#040101"></path><path d="M452 330L502 314L509 285Z" fill="#131111" stroke="#131111"></path><path d="M506 250L477 226L467 243Z" fill="#0c0909" stroke="#0c0909"></path><path d="M452 330L509 285L467 243Z" fill="#131111" stroke="#131111"></path><path d="M502 314L512 310L509 285Z" fill="#060303" stroke="#060303"></path><path d="M509 285L565 270L506 250Z" fill="#121010" stroke="#121010"></path><path d="M512 310L527 298L509 285Z" fill="#0c0909" stroke="#0c0909"></path><path d="M405 288L452 330L467 243Z" fill="#0f0d0d" stroke="#0f0d0d"></path><path d="M502 314L526 328L512 310Z" fill="#121010" stroke="#121010"></path><path d="M512 310L526 328L527 298Z" fill="#040101" stroke="#040101"></path><path d="M525 349L526 328L502 314Z" fill="#0a0707" stroke="#0a0707"></path><path d="M458 238L405 288L467 243Z" fill="#121010" stroke="#121010"></path><path d="M566 344L565 270L527 298Z" fill="#060303" stroke="#060303"></path><path d="M527 298L565 270L509 285Z" fill="#0a0707" stroke="#0a0707"></path><path d="M506 250L503 174L477 226Z" fill="#080505" stroke="#080505"></path><path d="M452 330L491 358L502 314Z" fill="#0c0909" stroke="#0c0909"></path><path d="M491 358L525 349L502 314Z" fill="#000000" stroke="#000000"></path><path d="M526 328L566 344L527 298Z" fill="#100e0e" stroke="#100e0e"></path><path d="M405 288L424 344L452 330Z" fill="#0c0909" stroke="#0c0909"></path><path d="M452 330L463 381L491 358Z" fill="#040101" stroke="#040101"></path><path d="M418 195L389 287L405 288Z" fill="#121010" stroke="#121010"></path><path d="M405 288L389 287L424 344Z" fill="#000000" stroke="#000000"></path><path d="M565 270L555 208L506 250Z" fill="#0f0d0d" stroke="#0f0d0d"></path><path d="M555 208L503 174L506 250Z" fill="#080505" stroke="#080505"></path><path d="M477 226L418 195L458 238Z" fill="#0f0d0d" stroke="#0f0d0d"></path><path d="M458 238L418 195L405 288Z" fill="#040101" stroke="#040101"></path><path d="M503 174L418 195L477 226Z" fill="#100e0e" stroke="#100e0e"></path><path d="M591 186L563 197L555 208Z" fill="#121010" stroke="#121010"></path><path d="M555 208L554 168L503 174Z" fill="#0f0d0d" stroke="#0f0d0d"></path><path d="M572 376L566 344L525 349Z" fill="#131111" stroke="#131111"></path><path d="M525 349L566 344L526 328Z" fill="#060303" stroke="#060303"></path><path d="M424 344L463 381L452 330Z" fill="#080505" stroke="#080505"></path><path d="M491 358L518 400L525 349Z" fill="#0a0707" stroke="#0a0707"></path><path d="M563 197L554 168L555 208Z" fill="#0a0707" stroke="#0a0707"></path><path d="M424 344L436 393L463 381Z" fill="#121010" stroke="#121010"></path><path d="M463 381L518 400L491 358Z" fill="#060303" stroke="#060303"></path><path d="M368 370L436 393L424 344Z" fill="#131111" stroke="#131111"></path><path d="M554 168L529 146L503 174Z" fill="#0c0909" stroke="#0c0909"></path><path d="M503 174L455 125L418 195Z" fill="#100e0e" stroke="#100e0e"></path><path d="M476 482L518 400L463 381Z" fill="#000000" stroke="#000000"></path><path d="M563 197L591 184L554 168Z" fill="#040101" stroke="#040101"></path><path d="M554 168L557 103L529 146Z" fill="#0a0707" stroke="#0a0707"></path><path d="M630 231L591 186L555 208Z" fill="#0a0707" stroke="#0a0707"></path><path d="M630 231L555 208L565 270Z" fill="#100e0e" stroke="#100e0e"></path><path d="M591 186L591 184L563 197Z" fill="#000000" stroke="#000000"></path><path d="M518 400L572 376L525 349Z" fill="#060303" stroke="#060303"></path><path d="M566 344L627 279L565 270Z" fill="#040101" stroke="#040101"></path><path d="M418 195L348 233L389 287Z" fill="#0c0909" stroke="#0c0909"></path><path d="M389 287L368 370L424 344Z" fill="#0a0707" stroke="#0a0707"></path><path d="M642 348L627 279L566 344Z" fill="#131111" stroke="#131111"></path><path d="M591 186L650 159L591 184Z" fill="#0a0707" stroke="#0a0707"></path><path d="M471 118L455 125L503 174Z" fill="#0f0d0d" stroke="#0f0d0d"></path><path d="M418 195L362 183L348 233Z" fill="#100e0e" stroke="#100e0e"></path><path d="M375 130L362 183L418 195Z" fill="#0e0b0b" stroke="#0e0b0b"></path><path d="M628 133L584 161L591 184Z" fill="#080505" stroke="#080505"></path><path d="M591 184L584 161L554 168Z" fill="#0c0909" stroke="#0c0909"></path><path d="M507 118L471 118L503 174Z" fill="#131111" stroke="#131111"></path><path d="M507 118L503 174L529 146Z" fill="#060303" stroke="#060303"></path><path d="M310 372L368 370L286 347Z" fill="#060303" stroke="#060303"></path><path d="M627 279L630 231L565 270Z" fill="#121010" stroke="#121010"></path><path d="M557 103L507 118L529 146Z" fill="#000000" stroke="#000000"></path><path d="M507 118L475 108L471 118Z" fill="#100e0e" stroke="#100e0e"></path><path d="M471 118L475 108L455 125Z" fill="#080505" stroke="#080505"></path><path d="M455 125L375 130L418 195Z" fill="#131111" stroke="#131111"></path><path d="M368 370L418 425L436 393Z" fill="#060303" stroke="#060303"></path><path d="M436 393L476 482L463 381Z" fill="#060303" stroke="#060303"></path><path d="M602 411L622 369L572 376Z" fill="#000000" stroke="#000000"></path><path d="M572 376L622 369L566 344Z" fill="#100e0e" stroke="#100e0e"></path><path d="M627 279L658 258L630 231Z" fill="#100e0e" stroke="#100e0e"></path><path d="M557 103L496 96L507 118Z" fill="#080505" stroke="#080505"></path><path d="M507 118L496 96L475 108Z" fill="#0a0707" stroke="#0a0707"></path><path d="M549 493L567 422L518 400Z" fill="#060303" stroke="#060303"></path><path d="M518 400L567 422L572 376Z" fill="#040101" stroke="#040101"></path><path d="M663 297L658 258L627 279Z" fill="#080505" stroke="#080505"></path><path d="M650 159L628 133L591 184Z" fill="#000000" stroke="#000000"></path><path d="M439 72L455 125L475 108Z" fill="#0a0707" stroke="#0a0707"></path><path d="M439 72L375 130L455 125Z" fill="#0f0d0d" stroke="#0f0d0d"></path><path d="M266 194L296 267L348 233Z" fill="#080505" stroke="#080505"></path><path d="M622 369L642 348L566 344Z" fill="#100e0e" stroke="#100e0e"></path><path d="M628 133L557 103L584 161Z" fill="#0e0b0b" stroke="#0e0b0b"></path><path d="M584 161L557 103L554 168Z" fill="#060303" stroke="#060303"></path><path d="M642 348L663 297L627 279Z" fill="#0a0707" stroke="#0a0707"></path><path d="M567 422L602 411L572 376Z" fill="#0e0b0b" stroke="#0e0b0b"></path><path d="M677 339L659 337L665 372Z" fill="#121010" stroke="#121010"></path><path d="M289 175L348 233L362 183Z" fill="#0e0b0b" stroke="#0e0b0b"></path><path d="M348 233L296 267L389 287Z" fill="#0f0d0d" stroke="#0f0d0d"></path><path d="M659 337L642 348L665 372Z" fill="#080505" stroke="#080505"></path><path d="M642 348L659 337L663 297Z" fill="#0f0d0d" stroke="#0f0d0d"></path><path d="M310 372L354 413L368 370Z" fill="#040101" stroke="#040101"></path><path d="M368 370L354 413L418 425Z" fill="#0e0b0b" stroke="#0e0b0b"></path><path d="M650 159L591 186L630 231Z" fill="#060303" stroke="#060303"></path><path d="M286 347L368 370L389 287Z" fill="#0a0707" stroke="#0a0707"></path><path d="M684 235L650 159L630 231Z" fill="#100e0e" stroke="#100e0e"></path><path d="M684 235L630 231L658 258Z" fill="#060303" stroke="#060303"></path><path d="M500 56L439 72L496 96Z" fill="#0e0b0b" stroke="#0e0b0b"></path><path d="M496 96L439 72L475 108Z" fill="#0f0d0d" stroke="#0f0d0d"></path><path d="M701 294L658 258L663 297Z" fill="#131111" stroke="#131111"></path><path d="M701 294L684 235L658 258Z" fill="#060303" stroke="#060303"></path><path d="M662 373L642 348L622 369Z" fill="#060303" stroke="#060303"></path><path d="M659 337L677 339L663 297Z" fill="#0f0d0d" stroke="#0f0d0d"></path><path d="M659 404L662 373L622 369Z" fill="#100e0e" stroke="#100e0e"></path><path d="M665 372L680 338L677 339Z" fill="#040101" stroke="#040101"></path><path d="M677 339L680 338L663 297Z" fill="#060303" stroke="#060303"></path><path d="M659 404L665 372L662 373Z" fill="#0c0909" stroke="#0c0909"></path><path d="M662 373L665 372L642 348Z" fill="#080505" stroke="#080505"></path><path d="M296 267L286 347L389 287Z" fill="#0e0b0b" stroke="#0e0b0b"></path><path d="M337 82L333 119L375 130Z" fill="#0f0d0d" stroke="#0f0d0d"></path><path d="M375 130L333 119L362 183Z" fill="#000000" stroke="#000000"></path><path d="M448 500L476 482L418 425Z" fill="#0f0d0d" stroke="#0f0d0d"></path><path d="M418 425L476 482L436 393Z" fill="#0f0d0d" stroke="#0f0d0d"></path><path d="M627 438L659 404L602 411Z" fill="#100e0e" stroke="#100e0e"></path><path d="M290 374L303 386L310 372Z" fill="#060303" stroke="#060303"></path><path d="M310 372L303 386L354 413Z" fill="#060303" stroke="#060303"></path><path d="M354 413L364 488L418 425Z" fill="#040101" stroke="#040101"></path><path d="M538 8L500 56L557 103Z" fill="#100e0e" stroke="#100e0e"></path><path d="M557 103L500 56L496 96Z" fill="#0a0707" stroke="#0a0707"></path><path d="M333 119L289 175L362 183Z" fill="#0c0909" stroke="#0c0909"></path><path d="M296 267L253 268L286 347Z" fill="#0c0909" stroke="#0c0909"></path><path d="M287 371L290 374L310 372Z" fill="#131111" stroke="#131111"></path><path d="M719 282L701 294L742 346Z" fill="#080505" stroke="#080505"></path><path d="M680 338L701 294L663 297Z" fill="#121010" stroke="#121010"></path><path d="M286 347L287 371L310 372Z" fill="#131111" stroke="#131111"></path><path d="M602 411L659 404L622 369Z" fill="#080505" stroke="#080505"></path><path d="M665 372L717 353L680 338Z" fill="#0f0d0d" stroke="#0f0d0d"></path><path d="M627 438L602 411L567 422Z" fill="#131111" stroke="#131111"></path><path d="M549 493L627 438L567 422Z" fill="#000000" stroke="#000000"></path><path d="M614 71L602 80L628 133Z" fill="#0e0b0b" stroke="#0e0b0b"></path><path d="M628 133L602 80L557 103Z" fill="#040101" stroke="#040101"></path><path d="M224 439L308 412L290 374Z" fill="#131111" stroke="#131111"></path><path d="M290 374L308 412L303 386Z" fill="#080505" stroke="#080505"></path><path d="M303 386L308 412L354 413Z" fill="#100e0e" stroke="#100e0e"></path><path d="M308 412L335 444L354 413Z" fill="#040101" stroke="#040101"></path><path d="M242 196L266 194L228 130Z" fill="#080505" stroke="#080505"></path><path d="M289 175L266 194L348 233Z" fill="#100e0e" stroke="#100e0e"></path><path d="M286 347L189 362L287 371Z" fill="#080505" stroke="#080505"></path><path d="M257 208L253 268L296 267Z" fill="#131111" stroke="#131111"></path><path d="M437 0L415 50L439 72Z" fill="#000000" stroke="#000000"></path><path d="M439 72L415 50L375 130Z" fill="#040101" stroke="#040101"></path><path d="M364 488L448 500L418 425Z" fill="#100e0e" stroke="#100e0e"></path><path d="M476 482L549 493L518 400Z" fill="#040101" stroke="#040101"></path><path d="M567 540L549 493L536 563Z" fill="#0e0b0b" stroke="#0e0b0b"></path><path d="M266 194L257 208L296 267Z" fill="#000000" stroke="#000000"></path><path d="M333 84L309 111L333 119Z" fill="#131111" stroke="#131111"></path><path d="M333 119L309 111L289 175Z" fill="#040101" stroke="#040101"></path><path d="M266 194L242 196L257 208Z" fill="#0e0b0b" stroke="#0e0b0b"></path><path d="M717 353L701 294L680 338Z" fill="#080505" stroke="#080505"></path><path d="M701 294L719 282L684 235Z" fill="#131111" stroke="#131111"></path><path d="M715 169L663 116L650 159Z" fill="#040101" stroke="#040101"></path><path d="M715 169L650 159L684 235Z" fill="#100e0e" stroke="#100e0e"></path><path d="M650 159L663 116L628 133Z" fill="#0c0909" stroke="#0c0909"></path><path d="M415 50L337 82L375 130Z" fill="#040101" stroke="#040101"></path><path d="M337 82L333 84L333 119Z" fill="#060303" stroke="#060303"></path><path d="M663 116L614 71L628 133Z" fill="#060303" stroke="#060303"></path><path d="M602 80L538 8L557 103Z" fill="#000000" stroke="#000000"></path><path d="M627 438L678 407L659 404Z" fill="#0e0b0b" stroke="#0e0b0b"></path><path d="M659 404L678 407L665 372Z" fill="#060303" stroke="#060303"></path><path d="M698 452L678 407L627 438Z" fill="#040101" stroke="#040101"></path><path d="M363 540L364 488L335 546Z" fill="#0e0b0b" stroke="#0e0b0b"></path><path d="M335 444L364 488L354 413Z" fill="#040101" stroke="#040101"></path><path d="M678 407L717 353L665 372Z" fill="#040101" stroke="#040101"></path><path d="M228 130L266 194L289 175Z" fill="#0e0b0b" stroke="#0e0b0b"></path><path d="M257 208L190 250L253 268Z" fill="#040101" stroke="#040101"></path><path d="M769 208L715 169L684 235Z" fill="#000000" stroke="#000000"></path><path d="M506 0L488 10L500 56Z" fill="#000000" stroke="#000000"></path><path d="M500 56L488 10L439 72Z" fill="#100e0e" stroke="#100e0e"></path><path d="M415 50L355 12L337 82Z" fill="#131111" stroke="#131111"></path><path d="M567 540L573 518L549 493Z" fill="#0e0b0b" stroke="#0e0b0b"></path><path d="M549 493L573 518L627 438Z" fill="#000000" stroke="#000000"></path><path d="M549 493L476 482L536 563Z" fill="#0c0909" stroke="#0c0909"></path><path d="M614 71L538 8L602 80Z" fill="#0c0909" stroke="#0c0909"></path><path d="M741 368L742 346L717 353Z" fill="#100e0e" stroke="#100e0e"></path><path d="M717 353L742 346L701 294Z" fill="#0a0707" stroke="#0a0707"></path><path d="M719 282L771 232L684 235Z" fill="#080505" stroke="#080505"></path><path d="M741 368L717 353L736 409Z" fill="#0f0d0d" stroke="#0f0d0d"></path><path d="M538 8L506 0L500 56Z" fill="#040101" stroke="#040101"></path><path d="M488 10L437 0L439 72Z" fill="#0a0707" stroke="#0a0707"></path><path d="M506 0L437 0L488 10Z" fill="#040101" stroke="#040101"></path><path d="M284 36L280 52L333 84Z" fill="#100e0e" stroke="#100e0e"></path><path d="M420 540L427 540L448 500Z" fill="#080505" stroke="#080505"></path><path d="M736 409L717 353L678 407Z" fill="#040101" stroke="#040101"></path><path d="M414 540L420 540L448 500Z" fill="#040101" stroke="#040101"></path><path d="M364 488L414 540L448 500Z" fill="#121010" stroke="#121010"></path><path d="M200 291L205 318L253 268Z" fill="#131111" stroke="#131111"></path><path d="M253 268L205 318L286 347Z" fill="#0f0d0d" stroke="#0f0d0d"></path><path d="M287 371L224 439L290 374Z" fill="#0f0d0d" stroke="#0f0d0d"></path><path d="M335 546L364 488L335 444Z" fill="#121010" stroke="#121010"></path><path d="M638 520L698 452L627 438Z" fill="#0a0707" stroke="#0a0707"></path><path d="M437 0L398 0L415 50Z" fill="#0c0909" stroke="#0c0909"></path><path d="M280 52L228 130L309 111Z" fill="#080505" stroke="#080505"></path><path d="M190 250L200 291L253 268Z" fill="#0f0d0d" stroke="#0f0d0d"></path><path d="M536 563L476 482L448 500Z" fill="#060303" stroke="#060303"></path><path d="M573 518L638 520L627 438Z" fill="#131111" stroke="#131111"></path><path d="M398 0L355 12L415 50Z" fill="#000000" stroke="#000000"></path><path d="M309 111L228 130L289 175Z" fill="#131111" stroke="#131111"></path><path d="M775 305L719 282L742 346Z" fill="#040101" stroke="#040101"></path><path d="M775 305L771 274L719 282Z" fill="#060303" stroke="#060303"></path><path d="M698 452L736 409L678 407Z" fill="#0c0909" stroke="#0c0909"></path><path d="M783 390L775 305L742 346Z" fill="#131111" stroke="#131111"></path><path d="M280 52L309 111L333 84Z" fill="#100e0e" stroke="#100e0e"></path><path d="M242 196L190 250L257 208Z" fill="#0a0707" stroke="#0a0707"></path><path d="M771 274L771 232L719 282Z" fill="#0a0707" stroke="#0a0707"></path><path d="M182 149L190 250L242 196Z" fill="#121010" stroke="#121010"></path><path d="M162 371L189 362L142 337Z" fill="#000000" stroke="#000000"></path><path d="M771 232L769 208L684 235Z" fill="#060303" stroke="#060303"></path><path d="M715 169L736 107L663 116Z" fill="#100e0e" stroke="#100e0e"></path><path d="M656 3L648 0L614 71Z" fill="#0a0707" stroke="#0a0707"></path><path d="M771 274L783 265L771 232Z" fill="#0a0707" stroke="#0a0707"></path><path d="M783 390L742 346L741 368Z" fill="#0e0b0b" stroke="#0e0b0b"></path><path d="M567 540L638 520L573 518Z" fill="#000000" stroke="#000000"></path><path d="M698 452L745 430L736 409Z" fill="#040101" stroke="#040101"></path><path d="M224 439L335 444L308 412Z" fill="#131111" stroke="#131111"></path><path d="M364 488L363 540L414 540Z" fill="#080505" stroke="#080505"></path><path d="M284 36L333 84L337 82Z" fill="#121010" stroke="#121010"></path><path d="M394 569L536 563L427 540Z" fill="#0c0909" stroke="#0c0909"></path><path d="M427 540L536 563L448 500Z" fill="#0c0909" stroke="#0c0909"></path><path d="M567 540L644 540L638 520Z" fill="#060303" stroke="#060303"></path><path d="M394 569L427 540L420 540Z" fill="#060303" stroke="#060303"></path><path d="M394 569L420 540L414 540Z" fill="#131111" stroke="#131111"></path><path d="M775 305L783 265L771 274Z" fill="#0a0707" stroke="#0a0707"></path><path d="M771 232L801 221L769 208Z" fill="#121010" stroke="#121010"></path><path d="M779 163L736 107L715 169Z" fill="#100e0e" stroke="#100e0e"></path><path d="M614 71L648 0L538 8Z" fill="#0c0909" stroke="#0c0909"></path><path d="M398 0L346 0L355 12Z" fill="#0e0b0b" stroke="#0e0b0b"></path><path d="M355 12L284 36L337 82Z" fill="#000000" stroke="#000000"></path><path d="M346 0L338 0L355 12Z" fill="#080505" stroke="#080505"></path><path d="M314 0L284 36L355 12Z" fill="#0c0909" stroke="#0c0909"></path><path d="M125 92L182 149L228 130Z" fill="#131111" stroke="#131111"></path><path d="M189 362L205 318L142 337Z" fill="#131111" stroke="#131111"></path><path d="M205 318L189 362L286 347Z" fill="#0a0707" stroke="#0a0707"></path><path d="M752 450L745 430L698 452Z" fill="#0c0909" stroke="#0c0909"></path><path d="M736 409L783 390L741 368Z" fill="#0e0b0b" stroke="#0e0b0b"></path><path d="M189 362L224 439L287 371Z" fill="#131111" stroke="#131111"></path><path d="M364 570L394 569L363 540Z" fill="#080505" stroke="#080505"></path><path d="M363 540L394 569L414 540Z" fill="#0e0b0b" stroke="#0e0b0b"></path><path d="M234 540L335 546L335 444Z" fill="#080505" stroke="#080505"></path><path d="M536 563L644 540L567 540Z" fill="#0e0b0b" stroke="#0e0b0b"></path><path d="M638 520L674 540L698 452Z" fill="#121010" stroke="#121010"></path><path d="M801 221L779 163L769 208Z" fill="#040101" stroke="#040101"></path><path d="M769 208L779 163L715 169Z" fill="#131111" stroke="#131111"></path><path d="M656 3L614 71L663 116Z" fill="#0f0d0d" stroke="#0f0d0d"></path><path d="M538 8L676 -32L506 0Z" fill="#000000" stroke="#000000"></path><path d="M338 0L314 0L355 12Z" fill="#131111" stroke="#131111"></path><path d="M726 32L656 3L663 116Z" fill="#131111" stroke="#131111"></path><path d="M314 0L313 0L284 36Z" fill="#0a0707" stroke="#0a0707"></path><path d="M536 563L656 540L644 540Z" fill="#040101" stroke="#040101"></path><path d="M644 540L656 540L638 520Z" fill="#131111" stroke="#131111"></path><path d="M783 265L801 221L771 232Z" fill="#080505" stroke="#080505"></path><path d="M820 256L801 221L783 265Z" fill="#060303" stroke="#060303"></path><path d="M820 256L783 265L775 305Z" fill="#040101" stroke="#040101"></path><path d="M335 546L364 570L363 540Z" fill="#121010" stroke="#121010"></path><path d="M212 34L228 130L280 52Z" fill="#131111" stroke="#131111"></path><path d="M228 130L182 149L242 196Z" fill="#060303" stroke="#060303"></path><path d="M146 290L205 318L200 291Z" fill="#0a0707" stroke="#0a0707"></path><path d="M264 26L280 52L284 36Z" fill="#080505" stroke="#080505"></path><path d="M791 463L783 390L745 430Z" fill="#040101" stroke="#040101"></path><path d="M745 430L783 390L736 409Z" fill="#040101" stroke="#040101"></path><path d="M779 163L762 106L736 107Z" fill="#060303" stroke="#060303"></path><path d="M736 107L726 32L663 116Z" fill="#121010" stroke="#121010"></path><path d="M820 157L762 106L779 163Z" fill="#060303" stroke="#060303"></path><path d="M719 531L752 450L698 452Z" fill="#080505" stroke="#080505"></path><path d="M313 0L264 26L284 36Z" fill="#0c0909" stroke="#0c0909"></path><path d="M656 540L674 540L638 520Z" fill="#080505" stroke="#080505"></path><path d="M536 563L674 540L656 540Z" fill="#0a0707" stroke="#0a0707"></path><path d="M536 563L679 540L674 540Z" fill="#0f0d0d" stroke="#0f0d0d"></path><path d="M674 540L679 540L698 452Z" fill="#0f0d0d" stroke="#0f0d0d"></path><path d="M189 362L162 371L224 439Z" fill="#040101" stroke="#040101"></path><path d="M146 290L200 291L190 250Z" fill="#000000" stroke="#000000"></path><path d="M141 234L146 290L190 250Z" fill="#000000" stroke="#000000"></path><path d="M845 284L820 256L775 305Z" fill="#000000" stroke="#000000"></path><path d="M801 221L820 157L779 163Z" fill="#060303" stroke="#060303"></path><path d="M781 52L726 32L736 107Z" fill="#0f0d0d" stroke="#0f0d0d"></path><path d="M157 159L141 234L190 250Z" fill="#080505" stroke="#080505"></path><path d="M137 140L157 159L182 149Z" fill="#080505" stroke="#080505"></path><path d="M182 149L157 159L190 250Z" fill="#080505" stroke="#080505"></path><path d="M144 488L211 484L224 439Z" fill="#121010" stroke="#121010"></path><path d="M224 439L211 484L335 444Z" fill="#0a0707" stroke="#0a0707"></path><path d="M335 546L234 540L364 570Z" fill="#100e0e" stroke="#100e0e"></path><path d="M726 32L699 0L656 3Z" fill="#080505" stroke="#080505"></path><path d="M656 3L676 -32L648 0Z" fill="#000000" stroke="#000000"></path><path d="M127 338L142 337L118 316Z" fill="#000000" stroke="#000000"></path><path d="M146 290L142 337L205 318Z" fill="#121010" stroke="#121010"></path><path d="M162 371L116 418L224 439Z" fill="#0e0b0b" stroke="#0e0b0b"></path><path d="M679 540L719 531L698 452Z" fill="#131111" stroke="#131111"></path><path d="M752 450L791 463L745 430Z" fill="#0a0707" stroke="#0a0707"></path><path d="M846 185L820 157L801 221Z" fill="#0a0707" stroke="#0a0707"></path><path d="M745 0L722 0L726 32Z" fill="#0e0b0b" stroke="#0e0b0b"></path><path d="M845 284L837 229L820 256Z" fill="#060303" stroke="#060303"></path><path d="M820 256L837 229L801 221Z" fill="#080505" stroke="#080505"></path><path d="M694 -34L676 -32L699 0Z" fill="#100e0e" stroke="#100e0e"></path><path d="M699 0L676 -32L656 3Z" fill="#100e0e" stroke="#100e0e"></path><path d="M648 0L676 -32L538 8Z" fill="#000000" stroke="#000000"></path><path d="M506 0L268 -42L437 0Z" fill="#131111" stroke="#131111"></path><path d="M437 0L268 -42L398 0Z" fill="#131111" stroke="#131111"></path><path d="M398 0L268 -42L346 0Z" fill="#040101" stroke="#040101"></path><path d="M346 0L268 -42L338 0Z" fill="#0f0d0d" stroke="#0f0d0d"></path><path d="M338 0L268 -42L314 0Z" fill="#0e0b0b" stroke="#0e0b0b"></path><path d="M314 0L268 -42L313 0Z" fill="#0a0707" stroke="#0a0707"></path><path d="M264 26L212 34L280 52Z" fill="#000000" stroke="#000000"></path><path d="M228 3L212 34L264 26Z" fill="#0f0d0d" stroke="#0f0d0d"></path><path d="M781 52L736 107L762 106Z" fill="#0e0b0b" stroke="#0e0b0b"></path><path d="M726 32L722 0L699 0Z" fill="#0a0707" stroke="#0a0707"></path><path d="M118 316L142 337L146 290Z" fill="#000000" stroke="#000000"></path><path d="M142 337L127 338L162 371Z" fill="#100e0e" stroke="#100e0e"></path><path d="M783 390L845 284L775 305Z" fill="#121010" stroke="#121010"></path><path d="M852 424L845 284L783 390Z" fill="#0c0909" stroke="#0c0909"></path><path d="M782 530L791 463L752 450Z" fill="#121010" stroke="#121010"></path><path d="M197 525L234 540L211 484Z" fill="#0f0d0d" stroke="#0f0d0d"></path><path d="M211 484L234 540L335 444Z" fill="#0c0909" stroke="#0c0909"></path><path d="M104 290L118 316L146 290Z" fill="#040101" stroke="#040101"></path><path d="M113 242L146 290L141 234Z" fill="#040101" stroke="#040101"></path><path d="M268 -42L264 26L313 0Z" fill="#000000" stroke="#000000"></path><path d="M268 -42L228 3L264 26Z" fill="#0f0d0d" stroke="#0f0d0d"></path><path d="M125 92L137 140L182 149Z" fill="#121010" stroke="#121010"></path><path d="M83 181L113 242L141 234Z" fill="#080505" stroke="#080505"></path><path d="M125 92L228 130L212 34Z" fill="#080505" stroke="#080505"></path><path d="M836 64L781 52L762 106Z" fill="#0c0909" stroke="#0c0909"></path><path d="M722 0L694 -34L699 0Z" fill="#131111" stroke="#131111"></path><path d="M676 -32L268 -42L506 0Z" fill="#080505" stroke="#080505"></path><path d="M745 0L694 -34L722 0Z" fill="#131111" stroke="#131111"></path><path d="M83 181L141 234L157 159Z" fill="#0e0b0b" stroke="#0e0b0b"></path><path d="M837 229L846 185L801 221Z" fill="#080505" stroke="#080505"></path><path d="M820 157L836 64L762 106Z" fill="#040101" stroke="#040101"></path><path d="M864 166L846 185L891 161Z" fill="#080505" stroke="#080505"></path><path d="M679 540L740 544L719 531Z" fill="#131111" stroke="#131111"></path><path d="M719 531L782 530L752 450Z" fill="#000000" stroke="#000000"></path><path d="M536 563L740 544L679 540Z" fill="#0c0909" stroke="#0c0909"></path><path d="M781 52L745 0L726 32Z" fill="#000000" stroke="#000000"></path><path d="M694 -34L268 -42L676 -32Z" fill="#0f0d0d" stroke="#0f0d0d"></path><path d="M113 242L104 290L146 290Z" fill="#0e0b0b" stroke="#0e0b0b"></path><path d="M95 328L110 351L127 338Z" fill="#0c0909" stroke="#0c0909"></path><path d="M95 328L127 338L118 316Z" fill="#000000" stroke="#000000"></path><path d="M127 338L110 351L162 371Z" fill="#0a0707" stroke="#0a0707"></path><path d="M163 517L197 525L211 484Z" fill="#100e0e" stroke="#100e0e"></path><path d="M197 525L211 540L234 540Z" fill="#0f0d0d" stroke="#0f0d0d"></path><path d="M234 540L211 540L364 570Z" fill="#000000" stroke="#000000"></path><path d="M104 290L95 328L118 316Z" fill="#080505" stroke="#080505"></path><path d="M103 395L113 408L162 371Z" fill="#131111" stroke="#131111"></path><path d="M78 358L95 328L0 334Z" fill="#040101" stroke="#040101"></path><path d="M103 395L162 371L110 351Z" fill="#080505" stroke="#080505"></path><path d="M740 544L770 540L719 531Z" fill="#000000" stroke="#000000"></path><path d="M791 463L852 424L783 390Z" fill="#131111" stroke="#131111"></path><path d="M113 408L116 418L162 371Z" fill="#131111" stroke="#131111"></path><path d="M913 258L846 185L837 229Z" fill="#040101" stroke="#040101"></path><path d="M846 185L864 166L820 157Z" fill="#100e0e" stroke="#100e0e"></path><path d="M781 52L792 0L745 0Z" fill="#040101" stroke="#040101"></path><path d="M770 540L782 530L719 531Z" fill="#080505" stroke="#080505"></path><path d="M134 19L125 92L212 34Z" fill="#131111" stroke="#131111"></path><path d="M137 140L83 181L157 159Z" fill="#121010" stroke="#121010"></path><path d="M113 242L46 209L104 290Z" fill="#0c0909" stroke="#0c0909"></path><path d="M186 -10L212 34L228 3Z" fill="#0e0b0b" stroke="#0e0b0b"></path><path d="M78 358L103 395L110 351Z" fill="#100e0e" stroke="#100e0e"></path><path d="M113 408L79 412L116 418Z" fill="#0e0b0b" stroke="#0e0b0b"></path><path d="M863 462L852 424L791 463Z" fill="#121010" stroke="#121010"></path><path d="M845 284L886 270L837 229Z" fill="#121010" stroke="#121010"></path><path d="M101 456L144 488L116 418Z" fill="#0f0d0d" stroke="#0f0d0d"></path><path d="M116 418L144 488L224 439Z" fill="#131111" stroke="#131111"></path><path d="M197 525L140 540L211 540Z" fill="#100e0e" stroke="#100e0e"></path><path d="M909 409L886 270L845 284Z" fill="#060303" stroke="#060303"></path><path d="M144 488L163 517L211 484Z" fill="#121010" stroke="#121010"></path><path d="M268 -42L186 -10L228 3Z" fill="#121010" stroke="#121010"></path><path d="M782 530L822 496L791 463Z" fill="#0c0909" stroke="#0c0909"></path><path d="M78 129L83 181L137 140Z" fill="#040101" stroke="#040101"></path><path d="M864 166L836 64L820 157Z" fill="#0c0909" stroke="#0c0909"></path><path d="M820 0L792 0L781 52Z" fill="#100e0e" stroke="#100e0e"></path><path d="M745 0L792 0L694 -34Z" fill="#080505" stroke="#080505"></path><path d="M-3 280L95 328L104 290Z" fill="#0c0909" stroke="#0c0909"></path><path d="M95 328L78 358L110 351Z" fill="#121010" stroke="#121010"></path><path d="M79 412L101 456L116 418Z" fill="#100e0e" stroke="#100e0e"></path><path d="M933 192L891 161L846 185Z" fill="#060303" stroke="#060303"></path><path d="M864 166L891 161L836 64Z" fill="#0e0b0b" stroke="#0e0b0b"></path><path d="M79 412L113 408L103 395Z" fill="#0c0909" stroke="#0c0909"></path><path d="M144 488L140 540L163 517Z" fill="#0c0909" stroke="#0c0909"></path><path d="M858 477L863 462L791 463Z" fill="#121010" stroke="#121010"></path><path d="M852 424L886 414L845 284Z" fill="#121010" stroke="#121010"></path><path d="M858 477L791 463L822 496Z" fill="#100e0e" stroke="#100e0e"></path><path d="M78 358L79 412L103 395Z" fill="#000000" stroke="#000000"></path><path d="M43 111L78 129L125 92Z" fill="#0e0b0b" stroke="#0e0b0b"></path><path d="M125 92L78 129L137 140Z" fill="#121010" stroke="#121010"></path><path d="M83 181L46 209L113 242Z" fill="#0c0909" stroke="#0c0909"></path><path d="M933 83L851 52L836 64Z" fill="#131111" stroke="#131111"></path><path d="M836 64L820 0L781 52Z" fill="#040101" stroke="#040101"></path><path d="M863 462L886 414L852 424Z" fill="#0a0707" stroke="#0a0707"></path><path d="M886 270L913 258L837 229Z" fill="#121010" stroke="#121010"></path><path d="M893 540L822 496L782 530Z" fill="#080505" stroke="#080505"></path><path d="M893 540L858 477L822 496Z" fill="#0e0b0b" stroke="#0e0b0b"></path><path d="M863 462L909 409L886 414Z" fill="#080505" stroke="#080505"></path><path d="M186 -10L134 19L212 34Z" fill="#100e0e" stroke="#100e0e"></path><path d="M78 129L67 158L83 181Z" fill="#060303" stroke="#060303"></path><path d="M78 358L48 392L79 412Z" fill="#000000" stroke="#000000"></path><path d="M960 272L913 258L960 356Z" fill="#121010" stroke="#121010"></path><path d="M851 52L820 0L836 64Z" fill="#0a0707" stroke="#0a0707"></path><path d="M792 0L820 0L694 -34Z" fill="#000000" stroke="#000000"></path><path d="M27 58L43 111L125 92Z" fill="#0c0909" stroke="#0c0909"></path><path d="M186 -10L141 0L134 19Z" fill="#0e0b0b" stroke="#0e0b0b"></path><path d="M165 -46L141 0L186 -10Z" fill="#0a0707" stroke="#0a0707"></path><path d="M129 540L144 488L128 540Z" fill="#0f0d0d" stroke="#0f0d0d"></path><path d="M129 540L140 540L144 488Z" fill="#060303" stroke="#060303"></path><path d="M163 517L140 540L197 525Z" fill="#0f0d0d" stroke="#0f0d0d"></path><path d="M211 540L140 540L364 570Z" fill="#0a0707" stroke="#0a0707"></path><path d="M0 198L46 209L0 189Z" fill="#0a0707" stroke="#0a0707"></path><path d="M67 158L46 209L83 181Z" fill="#000000" stroke="#000000"></path><path d="M933 192L910 151L891 161Z" fill="#040101" stroke="#040101"></path><path d="M891 161L910 151L836 64Z" fill="#0c0909" stroke="#0c0909"></path><path d="M128 540L144 488L85 540Z" fill="#060303" stroke="#060303"></path><path d="M140 540L129 540L364 570Z" fill="#0e0b0b" stroke="#0e0b0b"></path><path d="M861 4L837 0L851 52Z" fill="#0a0707" stroke="#0a0707"></path><path d="M851 52L837 0L820 0Z" fill="#040101" stroke="#040101"></path><path d="M820 0L897 -20L694 -34Z" fill="#080505" stroke="#080505"></path><path d="M85 540L144 488L101 456Z" fill="#040101" stroke="#040101"></path><path d="M129 540L0 550L364 570Z" fill="#0c0909" stroke="#0c0909"></path><path d="M694 -34L165 -46L268 -42Z" fill="#000000" stroke="#000000"></path><path d="M268 -42L165 -46L186 -10Z" fill="#131111" stroke="#131111"></path><path d="M944 403L974 431L960 408Z" fill="#131111" stroke="#131111"></path><path d="M886 414L909 409L845 284Z" fill="#0c0909" stroke="#0c0909"></path><path d="M141 0L125 -5L134 19Z" fill="#060303" stroke="#060303"></path><path d="M78 129L43 111L67 158Z" fill="#131111" stroke="#131111"></path><path d="M165 -46L125 -5L141 0Z" fill="#0e0b0b" stroke="#0e0b0b"></path><path d="M0 355L48 392L78 358Z" fill="#0e0b0b" stroke="#0e0b0b"></path><path d="M79 412L58 485L101 456Z" fill="#080505" stroke="#080505"></path><path d="M913 258L933 192L846 185Z" fill="#000000" stroke="#000000"></path><path d="M947 27L861 4L851 52Z" fill="#060303" stroke="#060303"></path><path d="M960 272L933 192L913 258Z" fill="#080505" stroke="#080505"></path><path d="M933 83L836 64L910 151Z" fill="#0a0707" stroke="#0a0707"></path><path d="M837 0L897 -20L820 0Z" fill="#0a0707" stroke="#0a0707"></path><path d="M70 0L125 92L134 19Z" fill="#100e0e" stroke="#100e0e"></path><path d="M46 209L0 259L104 290Z" fill="#100e0e" stroke="#100e0e"></path><path d="M23 456L58 485L79 412Z" fill="#000000" stroke="#000000"></path><path d="M960 356L913 258L886 270Z" fill="#131111" stroke="#131111"></path><path d="M974 431L909 409L960 495Z" fill="#131111" stroke="#131111"></path><path d="M909 409L960 356L886 270Z" fill="#0f0d0d" stroke="#0f0d0d"></path><path d="M58 485L85 540L101 456Z" fill="#131111" stroke="#131111"></path><path d="M128 540L0 550L129 540Z" fill="#131111" stroke="#131111"></path><path d="M0 198L0 259L46 209Z" fill="#060303" stroke="#060303"></path><path d="M48 392L19 443L79 412Z" fill="#040101" stroke="#040101"></path><path d="M960 362L960 356L909 409Z" fill="#040101" stroke="#040101"></path><path d="M0 259L-3 280L104 290Z" fill="#000000" stroke="#000000"></path><path d="M960 368L960 362L909 409Z" fill="#080505" stroke="#080505"></path><path d="M-3 280L0 334L95 328Z" fill="#121010" stroke="#121010"></path><path d="M0 189L46 209L67 158Z" fill="#040101" stroke="#040101"></path><path d="M0 259L-29 308L-3 280Z" fill="#0a0707" stroke="#0a0707"></path><path d="M944 403L960 368L909 409Z" fill="#060303" stroke="#060303"></path><path d="M960 150L910 151L933 192Z" fill="#0c0909" stroke="#0c0909"></path><path d="M960 103L933 83L910 151Z" fill="#080505" stroke="#080505"></path><path d="M-29 308L0 345L0 334Z" fill="#0c0909" stroke="#0c0909"></path><path d="M0 334L0 345L78 358Z" fill="#121010" stroke="#121010"></path><path d="M4 132L0 189L67 158Z" fill="#080505" stroke="#080505"></path><path d="M0 198L-12 178L0 259Z" fill="#040101" stroke="#040101"></path><path d="M-29 308L0 355L0 345Z" fill="#0c0909" stroke="#0c0909"></path><path d="M0 345L0 355L78 358Z" fill="#121010" stroke="#121010"></path><path d="M770 540L893 540L782 530Z" fill="#080505" stroke="#080505"></path><path d="M858 477L960 495L863 462Z" fill="#0c0909" stroke="#0c0909"></path><path d="M944 403L960 408L960 368Z" fill="#000000" stroke="#000000"></path><path d="M740 544L893 540L770 540Z" fill="#0e0b0b" stroke="#0e0b0b"></path><path d="M960 551L893 540L740 544Z" fill="#100e0e" stroke="#100e0e"></path><path d="M981 194L960 150L933 192Z" fill="#131111" stroke="#131111"></path><path d="M125 -5L70 0L134 19Z" fill="#121010" stroke="#121010"></path><path d="M43 111L4 132L67 158Z" fill="#0e0b0b" stroke="#0e0b0b"></path><path d="M165 -46L70 0L125 -5Z" fill="#000000" stroke="#000000"></path><path d="M960 150L960 143L910 151Z" fill="#0a0707" stroke="#0a0707"></path><path d="M0 425L19 443L48 392Z" fill="#080505" stroke="#080505"></path><path d="M58 485L0 540L85 540Z" fill="#060303" stroke="#060303"></path><path d="M19 443L23 456L79 412Z" fill="#121010" stroke="#121010"></path><path d="M974 431L944 403L909 409Z" fill="#0e0b0b" stroke="#0e0b0b"></path><path d="M0 126L4 132L0 118Z" fill="#121010" stroke="#121010"></path><path d="M70 0L27 58L125 92Z" fill="#040101" stroke="#040101"></path><path d="M0 126L-12 178L4 132Z" fill="#0f0d0d" stroke="#0f0d0d"></path><path d="M4 132L-12 178L0 189Z" fill="#0e0b0b" stroke="#0e0b0b"></path><path d="M0 189L-12 178L0 198Z" fill="#040101" stroke="#040101"></path><path d="M-29 308L0 425L0 355Z" fill="#060303" stroke="#060303"></path><path d="M70 0L58 0L27 58Z" fill="#000000" stroke="#000000"></path><path d="M165 -46L58 0L70 0Z" fill="#0f0d0d" stroke="#0f0d0d"></path><path d="M0 118L4 132L43 111Z" fill="#040101" stroke="#040101"></path><path d="M960 272L981 194L933 192Z" fill="#100e0e" stroke="#100e0e"></path><path d="M960 150L981 194L960 143Z" fill="#0f0d0d" stroke="#0f0d0d"></path><path d="M1005 343L981 194L960 272Z" fill="#000000" stroke="#000000"></path><path d="M1005 343L960 272L960 356Z" fill="#100e0e" stroke="#100e0e"></path><path d="M1005 343L960 356L960 362Z" fill="#000000" stroke="#000000"></path><path d="M1005 343L960 362L960 368Z" fill="#040101" stroke="#040101"></path><path d="M27 58L0 118L43 111Z" fill="#0e0b0b" stroke="#0e0b0b"></path><path d="M0 126L0 118L-12 178Z" fill="#121010" stroke="#121010"></path><path d="M947 27L897 -20L861 4Z" fill="#040101" stroke="#040101"></path><path d="M861 4L897 -20L837 0Z" fill="#0f0d0d" stroke="#0f0d0d"></path><path d="M947 27L851 52L933 83Z" fill="#131111" stroke="#131111"></path><path d="M960 103L910 151L960 143Z" fill="#060303" stroke="#060303"></path><path d="M981 194L960 103L960 143Z" fill="#000000" stroke="#000000"></path><path d="M0 355L0 425L48 392Z" fill="#080505" stroke="#080505"></path><path d="M19 443L0 425L23 456Z" fill="#0c0909" stroke="#0c0909"></path><path d="M23 456L0 498L58 485Z" fill="#000000" stroke="#000000"></path><path d="M-29 308L0 334L-3 280Z" fill="#0c0909" stroke="#0c0909"></path><path d="M-12 178L-29 308L0 259Z" fill="#000000" stroke="#000000"></path><path d="M893 540L924 537L858 477Z" fill="#131111" stroke="#131111"></path><path d="M960 551L923 540L893 540Z" fill="#100e0e" stroke="#100e0e"></path><path d="M893 540L923 540L924 537Z" fill="#0a0707" stroke="#0a0707"></path><path d="M960 495L909 409L863 462Z" fill="#080505" stroke="#080505"></path><path d="M960 408L1005 343L960 368Z" fill="#131111" stroke="#131111"></path><path d="M960 495L858 477L924 537Z" fill="#080505" stroke="#080505"></path><path d="M975 0L960 58L960 103Z" fill="#000000" stroke="#000000"></path><path d="M960 103L960 58L933 83Z" fill="#080505" stroke="#080505"></path><path d="M960 58L947 27L933 83Z" fill="#000000" stroke="#000000"></path><path d="M974 431L1005 343L960 408Z" fill="#0c0909" stroke="#0c0909"></path><path d="M975 0L947 27L960 58Z" fill="#000000" stroke="#000000"></path><path d="M960 540L960 495L924 537Z" fill="#100e0e" stroke="#100e0e"></path><path d="M974 431L976 540L1005 343Z" fill="#131111" stroke="#131111"></path><path d="M58 0L2 39L27 58Z" fill="#121010" stroke="#121010"></path><path d="M27 58L2 39L0 118Z" fill="#080505" stroke="#080505"></path><path d="M0 118L-6 0L-12 178Z" fill="#0a0707" stroke="#0a0707"></path><path d="M-12 178L-6 0L-29 308Z" fill="#0e0b0b" stroke="#0e0b0b"></path><path d="M-29 308L0 498L0 425Z" fill="#000000" stroke="#000000"></path><path d="M0 425L0 498L23 456Z" fill="#060303" stroke="#060303"></path><path d="M947 27L960 0L897 -20Z" fill="#0a0707" stroke="#0a0707"></path><path d="M975 0L960 0L947 27Z" fill="#100e0e" stroke="#100e0e"></path><path d="M975 0L960 103L981 194Z" fill="#100e0e" stroke="#100e0e"></path><path d="M960 551L960 540L923 540Z" fill="#000000" stroke="#000000"></path><path d="M923 540L960 540L924 537Z" fill="#0f0d0d" stroke="#0f0d0d"></path><path d="M960 495L976 540L974 431Z" fill="#080505" stroke="#080505"></path><path d="M165 -46L0 0L58 0Z" fill="#000000" stroke="#000000"></path><path d="M58 0L0 0L2 39Z" fill="#121010" stroke="#121010"></path><path d="M2 39L-6 0L0 118Z" fill="#131111" stroke="#131111"></path><path d="M-29 308L0 540L0 498Z" fill="#131111" stroke="#131111"></path><path d="M0 498L0 540L58 485Z" fill="#000000" stroke="#000000"></path><path d="M85 540L0 550L128 540Z" fill="#080505" stroke="#080505"></path><path d="M536 563L960 551L740 544Z" fill="#0e0b0b" stroke="#0e0b0b"></path><path d="M960 540L976 540L960 495Z" fill="#100e0e" stroke="#100e0e"></path><path d="M394 569L960 551L536 563Z" fill="#131111" stroke="#131111"></path><path d="M364 570L960 551L394 569Z" fill="#000000" stroke="#000000"></path><path d="M165 -46L-6 0L0 0Z" fill="#0c0909" stroke="#0c0909"></path><path d="M0 0L-6 0L2 39Z" fill="#0c0909" stroke="#0c0909"></path><path d="M-29 308L0 550L0 540Z" fill="#060303" stroke="#060303"></path><path d="M0 540L0 550L85 540Z" fill="#0e0b0b" stroke="#0e0b0b"></path><path d="M1005 343L975 0L981 194Z" fill="#121010" stroke="#121010"></path><path d="M960 0L975 0L897 -20Z" fill="#121010" stroke="#121010"></path><path d="M960 551L976 540L960 540Z" fill="#080505" stroke="#080505"></path></g></svg>